<svg width="292" height="429" viewBox="0 0 292 429" fill="none" xmlns="http://www.w3.org/2000/svg">
<path opacity="0.25" d="M30 247.869L82.6132 99L183.016 129.419L188 250.634L148.126 293.036L167.066 346.039L77.3502 429L95.7918 356.179L30 247.869Z" fill="#0061FF"/>
<path fill-rule="evenodd" clip-rule="evenodd" d="M139.299 103.655C167.979 103.655 191.23 80.4509 191.23 51.8274C191.23 23.2039 167.979 0 139.299 0C110.618 0 87.3672 23.2039 87.3672 51.8274C87.3672 80.4509 110.618 103.655 139.299 103.655ZM141.282 35.2735C143.713 35.7356 146.058 34.1434 146.519 31.7174C146.98 29.2913 145.383 26.9501 142.952 26.488C140.521 26.026 138.177 27.6181 137.716 30.0442C137.255 32.4702 138.852 34.8115 141.282 35.2735ZM176.129 37.3455C175.668 39.7715 173.323 41.3636 170.892 40.9016C168.462 40.4395 166.865 38.0983 167.326 35.6722C167.787 33.2462 170.131 31.6541 172.562 32.1161C174.993 32.5782 176.59 34.9194 176.129 37.3455ZM154.228 47.8713C156.659 48.3334 159.003 46.7412 159.464 44.3152C159.925 41.8892 158.328 39.5479 155.897 39.0858C153.467 38.6238 151.122 40.2159 150.661 42.642C150.2 45.068 151.797 47.4093 154.228 47.8713ZM137.079 51.8756C137.952 53.4566 142.299 61.3271 151.344 63.0463C161.147 64.9097 168.667 58.0637 168.543 57.6264L164.424 53.1196C164.424 53.1196 158.922 58.0734 152.32 56.8185C145.718 55.5636 142.417 48.9365 142.417 48.9365L136.932 51.6179C136.957 51.6547 137.006 51.743 137.079 51.8756Z" fill="#0061FF"/>
<path d="M42.1561 159.954C42.1561 143.491 55.5971 130.077 72.093 130.077V87.8018C32.1771 87.8018 0 120.118 0 159.75C0 199.383 32.3807 231.699 72.093 231.699V189.831C55.5971 189.831 42.1561 176.416 42.1561 159.954Z" fill="#0061FF"/>
<path d="M72.0933 189.831L115.471 175.4L119.341 189.831L104.881 194.302L140.928 195.928V207.716L106.511 209.139L140.928 214.626L139.299 227.837L104.881 225.195L135.022 240.032L124.228 250.804L72.0933 231.902V189.831Z" fill="#0061FF"/>
<path d="M216.107 118.293L212.379 72.7299L227.316 72.3942L228.229 87.5015L238.36 52.8697L249.812 55.6662L243.029 89.4385L256.525 57.3055L268.972 62.0222L258.241 94.8302L279.804 69.0697L287.708 82.1105L256.978 128.273L216.107 118.293Z" fill="#0061FF"/>
<path d="M216.15 117.415L257.103 127.416C247.653 166.114 208.579 189.629 170 180.208L179.98 139.337C196.005 143.251 212.245 133.408 216.15 117.415Z" fill="#0061FF"/>
</svg>
