<svg width="810" height="480" viewBox="0 0 810 480" fill="none" xmlns="http://www.w3.org/2000/svg">
<path fill-rule="evenodd" clip-rule="evenodd" d="M702.127 341.647C730.652 341.647 753.777 318.571 753.777 290.104C753.777 261.637 730.652 238.561 702.127 238.561C673.602 238.561 650.478 261.637 650.478 290.104C650.478 318.571 673.602 341.647 702.127 341.647ZM675.998 276.157C678.459 276.157 680.454 274.166 680.454 271.71C680.454 269.254 678.459 267.263 675.998 267.263C673.537 267.263 671.542 269.254 671.542 271.71C671.542 274.166 673.537 276.157 675.998 276.157ZM710.431 271.71C710.431 274.166 708.436 276.157 705.975 276.157C703.514 276.157 701.519 274.166 701.519 271.71C701.519 269.254 703.514 267.263 705.975 267.263C708.436 267.263 710.431 269.254 710.431 271.71ZM690.987 286.061C693.448 286.061 695.443 284.07 695.443 281.615C695.443 279.159 693.448 277.168 690.987 277.168C688.526 277.168 686.531 279.159 686.531 281.615C686.531 284.07 688.526 286.061 690.987 286.061ZM691.19 295.589C687.876 295.589 685.074 294.135 683.003 292.536C681.98 291.745 681.18 290.952 680.64 290.361C680.371 290.068 680.171 289.828 680.044 289.67C679.98 289.591 679.935 289.533 679.909 289.498L679.885 289.466L679.888 289.47C679.888 289.471 679.889 289.472 677.619 291.115C675.349 292.758 675.349 292.758 675.35 292.759L675.352 292.761L675.355 292.766L675.362 292.776L675.384 292.805C675.401 292.828 675.423 292.858 675.451 292.894C675.506 292.967 675.582 293.065 675.679 293.185C675.872 293.425 676.148 293.754 676.503 294.142C677.21 294.916 678.246 295.942 679.577 296.97C682.216 299.009 686.199 301.194 691.19 301.194C696.18 301.194 700.163 299.009 702.802 296.97C704.133 295.942 705.169 294.916 705.876 294.142C706.231 293.754 706.507 293.425 706.7 293.185C706.797 293.065 706.873 292.967 706.928 292.894C706.956 292.858 706.978 292.828 706.995 292.805L707.017 292.776L707.024 292.766L707.029 292.759C707.03 292.758 707.03 292.758 704.76 291.115C702.49 289.472 702.492 289.47 702.492 289.469L702.495 289.466L702.47 289.498C702.444 289.533 702.399 289.591 702.335 289.67C702.208 289.828 702.008 290.068 701.739 290.361C701.2 290.952 700.399 291.745 699.376 292.536C697.306 294.135 694.504 295.589 691.19 295.589Z" fill="#009639"/>
<path d="M597.41 279.391C597.41 295.764 610.778 309.104 627.185 309.104V350.945C587.485 350.945 555.483 318.806 555.483 279.391C555.483 239.976 587.688 207.837 627.185 207.837V249.678C610.778 249.678 597.41 263.018 597.41 279.391Z" fill="#009639"/>
<path opacity="0.25" d="M661.415 360.648L747.295 350.137L795.703 479.5H652.908L661.415 360.648Z" fill="#009639"/>
<path d="M767.145 418.457H809.072C809.072 378.839 776.867 346.903 737.371 346.903V388.744C753.777 388.744 767.145 402.084 767.145 418.457Z" fill="#009639"/>
<path d="M627.185 249.678L670.327 264.029L672.251 256.854L674.175 249.678L659.795 245.231L695.645 243.614V231.89L661.415 230.273L695.645 225.018L694.025 211.88L659.795 214.507L689.772 199.752L679.037 189.039L627.185 207.837V249.678Z" fill="#009639"/>
<path fill-rule="evenodd" clip-rule="evenodd" d="M193.149 350.586C164.624 350.586 141.5 327.51 141.5 299.043C141.5 270.577 164.624 247.5 193.149 247.5C221.675 247.5 244.799 270.577 244.799 299.043C244.799 327.51 221.675 350.586 193.149 350.586ZM219.278 285.096C216.817 285.096 214.822 283.105 214.822 280.649C214.822 278.193 216.817 276.203 219.278 276.203C221.739 276.203 223.734 278.193 223.734 280.649C223.734 283.105 221.739 285.096 219.278 285.096ZM184.845 280.649C184.845 283.105 186.84 285.096 189.301 285.096C191.762 285.096 193.757 283.105 193.757 280.649C193.757 278.193 191.762 276.203 189.301 276.203C186.84 276.203 184.845 278.193 184.845 280.649ZM204.29 295.001C201.829 295.001 199.834 293.01 199.834 290.554C199.834 288.098 201.829 286.107 204.29 286.107C206.751 286.107 208.746 288.098 208.746 290.554C208.746 293.01 206.751 295.001 204.29 295.001ZM204.087 304.528C207.401 304.528 210.203 303.074 212.273 301.475C213.297 300.684 214.097 299.891 214.636 299.3C214.905 299.007 215.105 298.767 215.232 298.609C215.296 298.53 215.341 298.472 215.367 298.438L215.391 298.406L215.389 298.409C215.388 298.41 215.387 298.411 217.657 300.054C219.928 301.697 219.927 301.698 219.926 301.698L219.925 301.7L219.922 301.705L219.914 301.715L219.892 301.745C219.875 301.768 219.853 301.797 219.825 301.834C219.77 301.906 219.694 302.004 219.598 302.124C219.404 302.364 219.128 302.693 218.773 303.081C218.066 303.855 217.031 304.881 215.7 305.91C213.061 307.948 209.077 310.133 204.087 310.133C199.096 310.133 195.113 307.948 192.474 305.91C191.143 304.881 190.108 303.855 189.4 303.081C189.045 302.693 188.769 302.364 188.576 302.124C188.48 302.004 188.403 301.906 188.348 301.834C188.321 301.797 188.298 301.768 188.281 301.745L188.26 301.715L188.252 301.705L188.247 301.698C188.247 301.698 188.246 301.697 190.516 300.054C192.786 298.411 192.785 298.409 192.784 298.408L192.782 298.405L192.806 298.438C192.833 298.472 192.878 298.53 192.941 298.609C193.069 298.767 193.269 299.007 193.537 299.3C194.077 299.891 194.877 300.684 195.901 301.475C197.971 303.074 200.773 304.528 204.087 304.528Z" fill="#009639"/>
<path opacity="0.25" d="M147.437 360.647L241.5 367L269.5 479.5H132.5L147.437 360.647Z" fill="#009639"/>
<path fill-rule="evenodd" clip-rule="evenodd" d="M87.0902 321.279C59.0437 326.484 32.0973 308.013 26.9038 280.025C21.7102 252.036 40.2361 225.127 68.2826 219.923C96.329 214.719 123.275 233.189 128.469 261.178C133.663 289.167 115.137 316.075 87.0902 321.279ZM100.832 252.121C98.4126 252.57 96.0878 250.977 95.6397 248.562C95.1917 246.147 96.79 243.826 99.2097 243.377C101.629 242.928 103.954 244.521 104.402 246.936C104.85 249.351 103.252 251.672 100.832 252.121ZM66.1658 254.031C66.6139 256.446 68.9387 258.039 71.3584 257.591C73.7781 257.142 75.3764 254.82 74.9283 252.405C74.4802 249.991 72.1554 248.397 69.7357 248.846C67.316 249.295 65.7177 251.617 66.1658 254.031ZM87.9021 264.594C85.4824 265.043 83.1576 263.45 82.7095 261.035C82.2615 258.62 83.8598 256.299 86.2795 255.85C88.6992 255.401 91.024 256.994 91.472 259.409C91.9201 261.824 90.3218 264.145 87.9021 264.594ZM89.441 273.999C92.6995 273.394 95.1891 271.453 96.9328 269.503C97.7949 268.539 98.437 267.613 98.8598 266.934C99.0702 266.596 99.2233 266.324 99.3197 266.146C99.3678 266.056 99.4015 265.991 99.4209 265.952L99.4388 265.917L99.4368 265.921C99.4363 265.922 99.4359 265.923 101.968 267.124C104.499 268.325 104.499 268.326 104.498 268.327L104.497 268.329L104.495 268.334L104.489 268.346L104.473 268.378C104.461 268.404 104.444 268.437 104.424 268.478C104.383 268.559 104.326 268.669 104.253 268.805C104.107 269.076 103.895 269.45 103.617 269.897C103.063 270.787 102.232 271.984 101.111 273.238C98.8882 275.724 95.3702 278.599 90.4635 279.509C85.5569 280.42 81.2419 278.999 78.2753 277.476C76.7788 276.707 75.5737 275.887 74.737 275.256C74.3171 274.938 73.9856 274.665 73.752 274.465C73.6351 274.364 73.5424 274.282 73.475 274.221C73.4413 274.19 73.4139 274.165 73.393 274.146L73.3664 274.121L73.3568 274.112L73.3512 274.106C73.3504 274.106 73.3496 274.105 75.2818 272.075C77.214 270.046 77.212 270.044 77.2113 270.043L77.2085 270.041L77.2387 270.068C77.2706 270.097 77.3256 270.146 77.4025 270.212C77.5566 270.345 77.7971 270.544 78.1147 270.783C78.753 271.266 79.6845 271.899 80.835 272.49C83.1624 273.685 86.1826 274.604 89.441 273.999Z" fill="#009639"/>
<path opacity="0.25" d="M25.4372 330.647L119.5 337L155.5 463H0L25.4372 330.647Z" fill="#009639"/>
<path opacity="0.25" d="M295 270.369L347.613 121.5L448.016 151.919L453 273.134L413.126 315.536L432.066 368.539L342.35 451.5L360.792 378.679L295 270.369Z" fill="#0061FF"/>
<path fill-rule="evenodd" clip-rule="evenodd" d="M404.299 126.155C432.979 126.155 456.23 102.951 456.23 74.3274C456.23 45.7039 432.979 22.5 404.299 22.5C375.618 22.5 352.367 45.7039 352.367 74.3274C352.367 102.951 375.618 126.155 404.299 126.155ZM404.502 84.2864C406.977 84.2864 408.983 82.2845 408.983 79.815C408.983 77.3455 406.977 75.3436 404.502 75.3436C402.028 75.3436 400.022 77.3455 400.022 79.815C400.022 82.2845 402.028 84.2864 404.502 84.2864ZM439.123 79.815C439.123 82.2845 437.117 84.2864 434.642 84.2864C432.168 84.2864 430.162 82.2845 430.162 79.815C430.162 77.3455 432.168 75.3436 434.642 75.3436C437.117 75.3436 439.123 77.3455 439.123 79.815ZM419.572 94.2454C422.047 94.2454 424.053 92.2435 424.053 89.774C424.053 87.3045 422.047 85.3026 419.572 85.3026C417.098 85.3026 415.092 87.3045 415.092 89.774C415.092 92.2435 417.098 94.2454 419.572 94.2454ZM403.473 101.381C404.626 102.771 410.366 109.692 419.572 109.692C429.551 109.692 435.661 101.562 435.457 101.156L430.57 97.4973C430.57 97.4973 426.089 103.391 419.369 103.391C412.648 103.391 408.168 97.4973 408.168 97.4973L403.28 101.156C403.312 101.187 403.376 101.265 403.473 101.381Z" fill="#0061FF"/>
<path d="M307.156 182.454C307.156 165.991 320.597 152.577 337.093 152.577V110.302C297.177 110.302 265 142.618 265 182.25C265 221.883 297.381 254.199 337.093 254.199V212.331C320.597 212.331 307.156 198.916 307.156 182.454Z" fill="#0061FF"/>
<path d="M337.093 212.331L380.471 197.9L384.341 212.331L369.881 216.802L405.928 218.428V230.216L371.511 231.639L405.928 237.126L404.299 250.337L369.881 247.695L400.022 262.532L389.228 273.304L337.093 254.402V212.331Z" fill="#0061FF"/>
<path d="M469.264 205.42H511.42C511.42 165.584 479.039 133.472 439.327 133.472V175.543C455.823 175.543 469.264 188.957 469.264 205.42Z" fill="#0061FF"/>
<path d="M553.672 205.42H423.945V224.728H553.672V205.42Z" fill="#F0F6FC"/>
<path d="M454.6 224.728L491.664 251.963H516.103L535.45 224.728H511.419L506.531 231.435L498.792 224.728H454.6Z" fill="#0061FF"/>
<path fill-rule="evenodd" clip-rule="evenodd" d="M488.945 187.451C468.419 187.451 449.945 161.951 449.945 138.451C449.945 111.154 455.077 100.451 465.853 100.451C469.886 100.451 472.603 102.695 475.525 105.109C478.923 107.915 482.599 110.951 488.945 110.951C495.292 110.951 498.967 107.915 502.366 105.109C505.288 102.695 508.005 100.451 512.037 100.451C522.814 100.451 527.945 111.154 527.945 138.451C527.945 161.951 509.472 187.451 488.945 187.451Z" fill="#F0F6FC"/>
<path d="M465.945 138.347C465.945 138.347 468.764 134.451 473.21 134.451C477.655 134.451 480.474 138.347 480.474 138.347" stroke="#090C10" stroke-width="6" stroke-miterlimit="10" stroke-linejoin="bevel"/>
<path d="M496.945 138.347C496.945 138.347 499.764 134.451 504.21 134.451C508.655 134.451 511.474 138.347 511.474 138.347" stroke="#090C10" stroke-width="6" stroke-miterlimit="10" stroke-linejoin="bevel"/>
<path d="M503.945 155.451C503.945 155.451 498.124 163.451 488.945 163.451C479.766 163.451 473.945 155.451 473.945 155.451" stroke="#090C10" stroke-width="6" stroke-miterlimit="10" stroke-linejoin="bevel"/>
<path d="M504 60V0" stroke="#CC317C" stroke-width="6"/>
<path d="M620 115.5L560 115.5" stroke="#CC317C" stroke-width="6"/>
<path d="M593.426 26.4999L551 68.9263" stroke="#CC317C" stroke-width="6"/>
</svg>
