<svg width="298" height="257" viewBox="0 0 298 257" fill="none" xmlns="http://www.w3.org/2000/svg">
<path fill-rule="evenodd" clip-rule="evenodd" d="M67.0204 235.097C104.035 246.926 143.61 226.571 155.415 189.633C167.22 152.695 146.783 113.161 109.769 101.332C72.7545 89.5034 33.1789 109.858 21.3742 146.797C9.56955 183.735 30.0061 223.268 67.0204 235.097ZM60.273 139.282C63.4664 140.302 66.8808 138.546 67.8992 135.36C68.9177 132.173 67.1545 128.762 63.9611 127.741C60.7677 126.721 57.3534 128.477 56.3349 131.664C55.3165 134.851 57.0796 138.261 60.273 139.282ZM106.798 147.791C105.779 150.977 102.365 152.734 99.1717 151.713C95.9783 150.693 94.2151 147.282 95.2335 144.095C96.252 140.908 99.6664 139.152 102.86 140.173C106.053 141.193 107.816 144.604 106.798 147.791ZM75.6153 158.35C78.8087 159.37 82.223 157.614 83.2415 154.427C84.2599 151.24 82.4968 147.83 79.3034 146.809C76.11 145.788 72.6956 147.545 71.6772 150.731C70.6587 153.918 72.4219 157.329 75.6153 158.35ZM71.9275 170.797C67.6272 169.423 64.5944 166.374 62.5712 163.44C61.5711 161.989 60.8616 160.628 60.4063 159.638C60.1797 159.146 60.0192 158.752 59.9196 158.494C59.8698 158.365 59.8355 158.271 59.8158 158.216L59.7998 158.17C59.8002 158.171 59.8006 158.173 56.1737 159.363C52.5469 160.554 52.5473 160.555 52.5478 160.556L52.5488 160.559L52.5511 160.566L52.5568 160.583L52.5727 160.63C52.5852 160.667 52.6019 160.715 52.6226 160.774C52.6641 160.89 52.7223 161.049 52.7979 161.245C52.949 161.636 53.1709 162.178 53.4704 162.829C54.0673 164.126 54.9853 165.887 56.2861 167.774C58.8649 171.514 63.128 176 69.6035 178.069C76.079 180.138 82.1536 178.956 86.4234 177.405C88.5771 176.622 90.3461 175.72 91.5848 175.009C92.2066 174.653 92.7013 174.34 93.0513 174.109C93.2264 173.993 93.3659 173.898 93.4674 173.827C93.5182 173.791 93.5595 173.762 93.5911 173.739L93.6312 173.71L93.6458 173.699L93.6543 173.693C93.6555 173.692 93.6567 173.691 91.3923 170.618C89.128 167.545 89.131 167.543 89.1321 167.542L89.0908 167.571C89.0427 167.605 88.96 167.662 88.8447 167.738C88.6139 167.89 88.2548 168.118 87.7846 168.388C86.8396 168.93 85.4723 169.628 83.8164 170.229C80.4666 171.446 76.2278 172.171 71.9275 170.797Z" fill="#F0F6FC"/>
<path d="M205.73 129H263.035C263.035 74.7401 219.018 31 165.035 31V88.3051C187.459 88.3051 205.73 106.576 205.73 129Z" fill="#F0F6FC"/>
<path opacity="0.25" d="M113.652 77.3L230.929 63L297.035 239H102.035L113.652 77.3Z" fill="#F0F6FC"/>
<path d="M54.035 60.6391L97.1775 74.9903L99.1017 67.8147L101.026 60.6391L86.6451 56.1922L122.496 54.5752V42.8516L88.2655 41.2346L122.496 35.9792L120.876 22.8407L86.6451 25.4684L116.622 10.7129L105.887 0L54.035 18.7981V60.6391Z" fill="#F0F6FC"/>
</svg>
