<svg width="241" height="33" viewBox="0 0 241 33" fill="none" xmlns="http://www.w3.org/2000/svg">
<g clip-path="url(#clip0_1_123)">
<path d="M83.1 33.3C81.5 33.3 80 33 78.7 32.5C77.4 31.9 76.3 31.1 75.5 30.1C74.6 29.1 74 27.8 73.5 26.3C73 24.8 72.8 23.2 72.8 21.4C72.8 19.6 73 17.9 73.5 16.5C74 15 74.6 13.8 75.5 12.7C76.4 11.7 77.5 10.9 78.7 10.3C80 9.7 81.4 9.5 83.1 9.5C85.4 9.5 87.3 10 88.7 11C90.2 12 91.2 13.4 91.9 15.1L88 16.9C87.7 15.8 87.1 15 86.3 14.4C85.5 13.8 84.4 13.5 83.1 13.5C81.3 13.5 80 14 79.1 15.1C78.2 16.2 77.8 17.6 77.8 19.4V23.5C77.8 25.2 78.2 26.7 79.1 27.8C80 28.9 81.3 29.4 83.1 29.4C84.5 29.4 85.6 29.1 86.5 28.4C87.4 27.7 88 26.8 88.5 25.7L92.1 27.6C91.3 29.5 90.2 30.9 88.7 31.9C87.2 32.9 85.3 33.3 83.1 33.3Z" fill="#F0F6FC"/>
<path d="M105.3 33.3C103.7 33.3 102.3 33 101 32.5C99.7 31.9 98.6 31.1 97.7 30.1C96.8 29.1 96.1 27.8 95.6 26.3C95.1 24.8 94.9 23.2 94.9 21.4C94.9 19.6 95.1 17.9 95.6 16.5C96.1 15 96.8 13.8 97.7 12.7C98.6 11.7 99.7 10.9 101 10.3C102.3 9.7 103.7 9.5 105.3 9.5C106.9 9.5 108.3 9.8 109.6 10.3C110.9 10.9 112 11.7 112.9 12.7C113.8 13.7 114.5 15 115 16.5C115.5 18 115.7 19.6 115.7 21.4C115.7 23.2 115.5 24.9 115 26.3C114.5 27.8 113.8 29 112.9 30.1C112 31.1 110.9 31.9 109.6 32.5C108.3 33.1 106.9 33.3 105.3 33.3ZM105.3 29.4C106.9 29.4 108.3 28.9 109.2 27.9C110.1 26.9 110.7 25.4 110.7 23.4V19.6C110.7 17.6 110.2 16.1 109.2 15.1C108.2 14.1 106.9 13.6 105.3 13.6C103.7 13.6 102.3 14.1 101.4 15.1C100.4 16.1 99.9 17.6 99.9 19.6V23.4C99.9 25.4 100.4 26.9 101.4 27.9C102.4 28.9 103.7 29.4 105.3 29.4Z" fill="#F0F6FC"/>
<path d="M146.9 29H146.7C146.2 30.3 145.4 31.4 144.3 32.2C143.2 33 141.9 33.3 140.3 33.3C137.4 33.3 135.2 32.3 133.6 30.2C132 28.1 131.2 25.2 131.2 21.4C131.2 17.6 132 14.7 133.6 12.6C135.2 10.5 137.4 9.49999 140.3 9.49999C141.8 9.49999 143.1 9.89999 144.3 10.6C145.4 11.3 146.2 12.4 146.7 13.8H146.9V0.399994H151.7V32.9H146.9V29ZM141.7 29.2C143.2 29.2 144.4 28.8 145.4 28.1C146.4 27.4 146.9 26.4 146.9 25.3V17.5C146.9 16.3 146.4 15.4 145.4 14.7C144.4 14 143.2 13.6 141.7 13.6C140 13.6 138.7 14.1 137.7 15.2C136.7 16.3 136.2 17.7 136.2 19.4V23.3C136.2 25.1 136.7 26.5 137.7 27.5C138.7 28.7 140.1 29.2 141.7 29.2Z" fill="#F0F6FC"/>
<path d="M156.3 10H160.9L163.2 19.6L165.3 28.2H165.4L167.8 19.6L170.6 10H174.9L177.7 19.6L180.1 28.2H180.2L182.2 19.6L184.6 10H189L182.9 32.8H177.5L174.5 22.4L172.7 16H172.6L170.8 22.4L167.8 32.8H162.5L156.3 10Z" fill="#F0F6FC"/>
<path d="M193.6 10H198.4V32.8H193.6V10Z" fill="#F0F6FC"/>
<path d="M205.2 32.8V10H210V14.4H210.2C210.5 13.2 211.2 12.2 212.2 11.3C213.2 10.4 214.6 10 216.5 10H217.8V14.6H215.9C214 14.6 212.5 14.9 211.5 15.5C210.5 16.1 210 17 210 18.2V32.8H205.2Z" fill="#F0F6FC"/>
<path d="M230.7 33.3C229.1 33.3 227.6 33 226.3 32.5C225 31.9 223.9 31.1 223 30.1C222.1 29.1 221.4 27.8 220.9 26.3C220.4 24.8 220.2 23.2 220.2 21.4C220.2 19.6 220.4 17.9 220.9 16.5C221.4 15 222.1 13.8 223 12.7C223.9 11.7 225 10.9 226.3 10.3C227.6 9.7 229 9.5 230.7 9.5C232.4 9.5 233.8 9.8 235.1 10.4C236.4 11 237.4 11.8 238.3 12.8C239.1 13.8 239.8 15 240.2 16.4C240.6 17.8 240.8 19.3 240.8 20.8V22.6H225.1V23.3C225.1 25 225.6 26.5 226.7 27.6C227.7 28.7 229.2 29.3 231.2 29.3C232.6 29.3 233.8 29 234.8 28.4C235.8 27.8 236.6 27 237.3 25.9L240.1 28.7C239.3 30.1 238 31.2 236.4 32.1C234.7 32.9 232.9 33.3 230.7 33.3ZM230.7 13.2C229.9 13.2 229.1 13.3 228.4 13.6C227.7 13.9 227.1 14.3 226.6 14.8C226.1 15.3 225.7 16 225.5 16.7C225.2 17.4 225.1 18.2 225.1 19.1V19.4H235.7V19C235.7 17.2 235.2 15.8 234.3 14.8C233.6 13.7 232.3 13.2 230.7 13.2Z" fill="#F0F6FC"/>
<path d="M125.9 0.399994H121.1V32.9H125.9V0.399994Z" fill="#F0F6FC"/>
<path d="M198.4 0.399994H193.6V5.99999H198.4V0.399994Z" fill="#F0F6FC"/>
<path d="M32.9 15.9L29.5 12.6L42.1 0.399994L45.4 3.69999L32.9 15.9Z" fill="#F0F6FC"/>
<path d="M27.6 12.6L24.2 15.9L11.6 3.69999L15 0.399994L27.6 12.6Z" fill="#F0F6FC"/>
<path d="M17.1786 19.2272L17.1786 14.5272L0.0785904 14.5272L0.0785904 19.2272L17.1786 19.2272Z" fill="#F0F6FC"/>
<path d="M24.2 17.8L27.6 21.1L15 33.3L11.6 30.1L24.2 17.8Z" fill="#F0F6FC"/>
<path d="M29.5 21.1L32.9 17.8L45.4 30.1L42.1 33.3L29.5 21.1Z" fill="#F0F6FC"/>
<path d="M39.8652 14.4732L39.8652 19.1732L56.9652 19.1732L56.9652 14.4732L39.8652 14.4732Z" fill="#F0F6FC"/>
</g>
<defs>
<clipPath id="clip0_1_123">
<rect width="241" height="33" fill="white"/>
</clipPath>
</defs>
</svg>
