<svg width="28" height="16" viewBox="0 0 28 16" fill="none" xmlns="http://www.w3.org/2000/svg">
<path d="M15.9074 7.51515L14.2589 5.91515L20.368 0L21.968 1.59999L15.9074 7.51515Z" fill="#F0F6FC"/>
<path d="M13.3377 5.91515L11.6892 7.51515L5.58008 1.59999L7.22856 0L13.3377 5.91515Z" fill="#F0F6FC"/>
<path d="M8.29083 9.13444L8.29083 6.85565L-7.9155e-05 6.85565L-7.91549e-05 9.13444L8.29083 9.13444Z" fill="#F0F6FC"/>
<path d="M11.6892 8.43634L13.3377 10.0363L7.22856 16L5.58008 14.4L11.6892 8.43634Z" fill="#F0F6FC"/>
<path d="M14.2589 10.0363L15.9074 8.43634L21.968 14.4L20.368 16L14.2589 10.0363Z" fill="#F0F6FC"/>
<path d="M19.2783 6.82949L19.2783 9.10828L27.5692 9.10828L27.5692 6.82949L19.2783 6.82949Z" fill="#F0F6FC"/>
</svg>
