<svg width="119" height="119" viewBox="0 0 119 119" fill="none" xmlns="http://www.w3.org/2000/svg">
<path fill-rule="evenodd" clip-rule="evenodd" d="M0.0400391 16.6988C0.0400391 7.86223 7.20348 0.698792 16.04 0.698792H102.155C110.992 0.698792 118.155 7.86224 118.155 16.6988V102.814C118.155 111.651 110.992 118.814 102.155 118.814H16.04C7.20348 118.814 0.0400391 111.651 0.0400391 102.814V16.6988ZM29.3056 43.8123C32.1278 43.8123 34.4156 41.5292 34.4156 38.7128C34.4156 35.8965 32.1278 33.6134 29.3056 33.6134C26.4835 33.6134 24.1957 35.8965 24.1957 38.7128C24.1957 41.5292 26.4835 43.8123 29.3056 43.8123ZM68.7921 38.7128C68.7921 41.5292 66.5043 43.8123 63.6821 43.8123C60.86 43.8123 58.5721 41.5292 58.5721 38.7128C58.5721 35.8965 60.86 33.6134 63.6821 33.6134C66.5043 33.6134 68.7921 35.8965 68.7921 38.7128ZM46.4946 55.1702C49.3168 55.1702 51.6046 52.8871 51.6046 50.0708C51.6046 47.2544 49.3168 44.9713 46.4946 44.9713C43.6725 44.9713 41.3846 47.2544 41.3846 50.0708C41.3846 52.8871 43.6725 55.1702 46.4946 55.1702ZM46.7262 66.0961C42.9258 66.0961 39.7126 64.4286 37.3385 62.5944C36.1649 61.6876 35.2472 60.7781 34.6284 60.101C34.3205 59.7641 34.091 59.4895 33.9449 59.3082C33.872 59.2176 33.8203 59.1508 33.7903 59.1115L33.7627 59.0749L33.7659 59.0792C33.7665 59.0801 33.7672 59.081 31.164 60.965C28.5608 62.8489 28.5616 62.8499 28.5623 62.8509L28.5639 62.8531L28.5675 62.8581L28.5765 62.8703L28.6012 62.9039C28.6146 62.9219 28.6308 62.9436 28.6499 62.9689C28.6587 62.9805 28.668 62.9928 28.678 63.0059C28.7412 63.0888 28.8285 63.2012 28.9393 63.3388C29.1607 63.6138 29.4773 63.9911 29.8844 64.4366C30.6955 65.3241 31.8828 66.5007 33.4093 67.6801C36.4355 70.0181 41.0034 72.5228 46.7262 72.5228C52.4489 72.5228 57.0168 70.0181 60.043 67.6801C61.5695 66.5007 62.7568 65.3241 63.5679 64.4366C63.975 63.9911 64.2916 63.6138 64.513 63.3388C64.6238 63.2012 64.7112 63.0888 64.7743 63.0059C64.806 62.9644 64.8316 62.9302 64.8511 62.9039L64.8758 62.8703L64.8848 62.8581L64.89 62.8509C64.8907 62.8499 64.8914 62.8489 62.2883 60.965C59.6851 59.081 59.687 59.0785 59.6876 59.0776L59.6903 59.0739L59.662 59.1115C59.632 59.1508 59.5803 59.2176 59.5074 59.3082C59.3613 59.4895 59.1318 59.7641 58.8239 60.101C58.2051 60.7781 57.2874 61.6876 56.1138 62.5944C53.7397 64.4286 50.5265 66.0961 46.7262 66.0961Z" fill="#F0F6FC"/>
</svg>
