<svg width="119" height="132" viewBox="0 0 119 132" fill="none" xmlns="http://www.w3.org/2000/svg">
<path fill-rule="evenodd" clip-rule="evenodd" d="M51.9087 2.14359C56.8591 -0.714532 62.9582 -0.71453 67.9087 2.14359L110.999 27.0218C115.949 29.8799 118.999 35.1619 118.999 40.8782V90.6346C118.999 96.3509 115.949 101.633 110.999 104.491L67.9087 129.369C62.9582 132.227 56.8591 132.227 51.9087 129.369L8.81836 104.491C3.86794 101.633 0.818359 96.3509 0.818359 90.6346V40.8782C0.818359 35.1619 3.86794 29.8799 8.81836 27.0218L51.9087 2.14359ZM30.1165 49.8123C32.9387 49.8123 35.2265 47.5292 35.2265 44.7128C35.2265 41.8965 32.9387 39.6134 30.1165 39.6134C27.2944 39.6134 25.0066 41.8965 25.0066 44.7128C25.0066 47.5292 27.2944 49.8123 30.1165 49.8123ZM69.6031 44.7128C69.6031 47.5292 67.3153 49.8123 64.4931 49.8123C61.671 49.8123 59.3832 47.5292 59.3832 44.7128C59.3832 41.8965 61.671 39.6134 64.4931 39.6134C67.3153 39.6134 69.6031 41.8965 69.6031 44.7128ZM47.3052 61.1702C50.1273 61.1702 52.4151 58.8871 52.4151 56.0707C52.4151 53.2544 50.1273 50.9713 47.3052 50.9713C44.483 50.9713 42.1952 53.2544 42.1952 56.0707C42.1952 58.8871 44.483 61.1702 47.3052 61.1702ZM47.5381 72.0961C43.7378 72.0961 40.5246 70.4286 38.1505 68.5944C36.9769 67.6876 36.0592 66.7781 35.4404 66.101C35.1325 65.7641 34.9029 65.4895 34.7569 65.3082C34.684 65.2176 34.6323 65.1508 34.6023 65.1115L34.5778 65.0792C34.5785 65.0801 34.5792 65.081 31.976 66.965C29.3728 68.8489 29.3735 68.8499 29.3743 68.8509L29.3759 68.8531L29.3795 68.8581L29.3884 68.8703L29.4132 68.9039C29.4327 68.9302 29.4583 68.9644 29.4899 69.0059C29.5531 69.0888 29.6405 69.2012 29.7513 69.3389C29.9727 69.6138 30.2893 69.9912 30.6964 70.4366C31.5075 71.3241 32.6948 72.5007 34.2213 73.6801C37.2475 76.0181 41.8154 78.5229 47.5381 78.5229C53.2609 78.5229 57.8288 76.0181 60.855 73.6801C62.3815 72.5007 63.5687 71.3241 64.3799 70.4366C64.787 69.9911 65.1036 69.6138 65.325 69.3389C65.4358 69.2012 65.5231 69.0888 65.5863 69.0059C65.6179 68.9644 65.6436 68.9302 65.6631 68.9039L65.6878 68.8703L65.6968 68.8581L65.702 68.8509C65.7027 68.8499 65.7034 68.8489 63.1003 66.965C60.4971 65.081 60.499 65.0785 60.4996 65.0776L60.4739 65.1115C60.444 65.1508 60.3923 65.2176 60.3194 65.3082C60.1733 65.4895 59.9438 65.7641 59.6359 66.101C59.0171 66.7781 58.0994 67.6876 56.9258 68.5944C54.5517 70.4286 51.3385 72.0961 47.5381 72.0961ZM34.5722 65.0714C34.572 65.0712 34.5721 65.0713 34.5724 65.0717L34.5747 65.0749C34.5734 65.0731 34.5724 65.0717 34.5722 65.0714Z" fill="#F0F6FC"/>
</svg>
