<svg width="360" height="317" viewBox="0 0 360 317" fill="none" xmlns="http://www.w3.org/2000/svg">
<path fill-rule="evenodd" clip-rule="evenodd" d="M288.987 225.865C307.845 225.865 323.133 210.609 323.133 191.789C323.133 172.97 307.845 157.714 288.987 157.714C270.129 157.714 254.841 172.97 254.841 191.789C254.841 210.609 270.129 225.865 288.987 225.865ZM271.713 182.569C273.34 182.569 274.659 181.253 274.659 179.629C274.659 178.005 273.34 176.689 271.713 176.689C270.086 176.689 268.767 178.005 268.767 179.629C268.767 181.253 270.086 182.569 271.713 182.569ZM294.477 179.629C294.477 181.253 293.158 182.569 291.531 182.569C289.904 182.569 288.585 181.253 288.585 179.629C288.585 178.005 289.904 176.689 291.531 176.689C293.158 176.689 294.477 178.005 294.477 179.629ZM281.622 189.117C283.249 189.117 284.568 187.8 284.568 186.177C284.568 184.553 283.249 183.237 281.622 183.237C279.995 183.237 278.676 184.553 278.676 186.177C278.676 187.8 279.995 189.117 281.622 189.117ZM281.756 195.416C279.565 195.416 277.713 194.454 276.344 193.397C275.667 192.874 275.138 192.35 274.782 191.959C274.604 191.765 274.472 191.607 274.388 191.502C274.346 191.45 274.316 191.412 274.299 191.389L274.284 191.37C274.285 191.371 274.285 191.371 272.784 192.457C271.284 193.543 271.284 193.544 271.285 193.545L271.286 193.546L271.288 193.549L271.293 193.556L271.307 193.575C271.318 193.59 271.333 193.61 271.351 193.634C271.388 193.682 271.438 193.747 271.502 193.826C271.63 193.984 271.812 194.202 272.047 194.459C272.514 194.97 273.199 195.649 274.079 196.329C275.824 197.677 278.457 199.121 281.756 199.121C285.055 199.121 287.689 197.677 289.433 196.329C290.313 195.649 290.998 194.97 291.465 194.459C291.7 194.202 291.883 193.984 292.01 193.826C292.074 193.747 292.125 193.682 292.161 193.634C292.179 193.61 292.194 193.59 292.205 193.575L292.219 193.556L292.225 193.549L292.228 193.545C292.228 193.544 292.228 193.543 290.728 192.457C289.227 191.371 289.228 191.37 289.228 191.369L289.214 191.389C289.196 191.412 289.167 191.45 289.125 191.502C289.04 191.607 288.908 191.765 288.731 191.959C288.374 192.35 287.845 192.874 287.168 193.397C285.799 194.454 283.947 195.416 281.756 195.416ZM274.281 191.366C274.281 191.366 274.281 191.366 274.281 191.366L274.283 191.368C274.282 191.367 274.281 191.366 274.281 191.366Z" fill="#009639"/>
<path d="M219.758 184.707C219.758 195.531 228.596 204.35 239.442 204.35V232.012C213.197 232.012 192.04 210.765 192.04 184.707C192.04 158.649 213.331 137.402 239.442 137.402V165.063C228.596 165.063 219.758 173.883 219.758 184.707Z" fill="#009639"/>
<path opacity="0.25" d="M262.072 238.426L318.848 231.477L350.851 317H256.448L262.072 238.426Z" fill="#009639"/>
<path d="M331.971 276.644H359.689C359.689 250.453 338.398 229.339 312.287 229.339V257C323.133 257 331.971 265.82 331.971 276.644Z" fill="#009639"/>
<path d="M239.442 165.063L267.964 174.551L269.236 169.807L270.508 165.063L261.001 162.123L284.702 161.054V153.304L262.072 152.235L284.702 148.761L283.631 140.075L261.001 141.812L280.819 132.057L273.722 124.974L239.442 137.402V165.063Z" fill="#009639"/>
<path opacity="0.25" d="M19.8331 178.742L54.616 80.3243L120.993 100.434L124.288 180.57L97.927 208.603L110.448 243.643L51.1366 298.489L63.3284 250.347L19.8331 178.742Z" fill="#0061FF"/>
<path fill-rule="evenodd" clip-rule="evenodd" d="M92.091 83.4016C111.052 83.4016 126.423 68.0614 126.423 49.1382C126.423 30.2151 111.052 14.8749 92.091 14.8749C73.1299 14.8749 57.7589 30.2151 57.7589 49.1382C57.7589 68.0614 73.1299 83.4016 92.091 83.4016ZM92.2259 55.7222C93.8617 55.7222 95.1878 54.3987 95.1878 52.7661C95.1878 51.1336 93.8617 49.8101 92.2259 49.8101C90.59 49.8101 89.2639 51.1336 89.2639 52.7661C89.2639 54.3987 90.59 55.7222 92.2259 55.7222ZM115.114 52.7661C115.114 54.3987 113.788 55.7222 112.152 55.7222C110.516 55.7222 109.19 54.3987 109.19 52.7661C109.19 51.1336 110.516 49.8101 112.152 49.8101C113.788 49.8101 115.114 51.1336 115.114 52.7661ZM102.189 62.3061C103.824 62.3061 105.151 60.9827 105.151 59.3501C105.151 57.7175 103.824 56.394 102.189 56.394C100.553 56.394 99.2266 57.7175 99.2266 59.3501C99.2266 60.9827 100.553 62.3061 102.189 62.3061ZM91.5453 67.0238C92.3075 67.9428 96.1021 72.5179 102.189 72.5179C108.786 72.5179 112.825 67.1433 112.69 66.8746L109.459 64.456C109.459 64.456 106.497 68.3526 102.054 68.3526C97.6112 68.3526 94.6492 64.456 94.6492 64.456L91.4179 66.8746C91.4388 66.8954 91.4814 66.9467 91.5453 67.0238Z" fill="#0061FF"/>
<path d="M27.8696 120.621C27.8696 109.737 36.7556 100.869 47.6611 100.869V72.921C21.2724 72.921 0 94.2852 0 120.487C0 146.688 21.4071 168.052 47.6611 168.052V140.373C36.7556 140.373 27.8696 131.505 27.8696 120.621Z" fill="#0061FF"/>
<path d="M47.6614 140.373L76.3388 130.833L78.8969 140.373L69.3377 143.329L93.1682 144.404V152.197L70.4148 153.138L93.1682 156.765L92.0912 165.499L69.3377 163.753L89.2638 173.561L82.1281 180.683L47.6614 168.187V140.373Z" fill="#0061FF"/>
<path d="M135.04 135.804H162.909C162.909 109.469 141.502 88.2388 115.248 88.2388V116.053C126.154 116.053 135.04 124.921 135.04 135.804Z" fill="#0061FF"/>
<path d="M190.843 135.804H105.08V148.569H190.843V135.804Z" fill="#F0F6FC"/>
<path d="M125.345 148.569L149.849 166.574H166.005L178.796 148.569H162.909L159.677 153.003L154.561 148.569H125.345Z" fill="#0061FF"/>
<path fill-rule="evenodd" clip-rule="evenodd" d="M148.051 123.925C134.481 123.925 122.268 107.067 122.268 91.5309C122.268 73.4845 125.661 66.4089 132.785 66.4089C135.451 66.4089 137.247 67.8924 139.179 69.4878C141.426 71.3435 143.856 73.3505 148.051 73.3505V123.925ZM156.924 69.4878C154.677 71.3435 152.247 73.3505 148.051 73.3505L148.051 123.925C161.621 123.925 173.835 107.067 173.835 91.5309C173.835 73.4845 170.442 66.4089 163.318 66.4089C160.652 66.4089 158.855 67.8924 156.924 69.4878Z" fill="#F0F6FC"/>
<path d="M132.846 91.4617C132.846 91.4617 134.71 88.8866 137.649 88.8866C140.587 88.8866 142.451 91.4617 142.451 91.4617" stroke="#090C10" stroke-width="3.96663" stroke-miterlimit="10" stroke-linejoin="bevel"/>
<path d="M153.34 91.4617C153.34 91.4617 155.204 88.8865 158.143 88.8865C161.082 88.8865 162.945 91.4617 162.945 91.4617" stroke="#090C10" stroke-width="3.96663" stroke-miterlimit="10" stroke-linejoin="bevel"/>
<path d="M157.968 102.77C157.968 102.77 154.12 108.059 148.051 108.059C141.983 108.059 138.135 102.77 138.135 102.77" stroke="#090C10" stroke-width="3.96663" stroke-miterlimit="10" stroke-linejoin="bevel"/>
<path d="M158.004 39.6663V0" stroke="#CC317C" stroke-width="3.96663"/>
<path d="M234.692 76.3577L195.026 76.3577" stroke="#CC317C" stroke-width="3.96663"/>
<path d="M217.124 17.5193L189.076 45.5676" stroke="#CC317C" stroke-width="3.96663"/>
</svg>
