<svg width="119" height="119" viewBox="0 0 119 119" fill="none" xmlns="http://www.w3.org/2000/svg">
<path fill-rule="evenodd" clip-rule="evenodd" d="M59.4585 118.913C92.1698 118.913 118.688 92.45 118.688 59.806C118.688 27.162 92.1698 0.698792 59.4585 0.698792C26.7472 0.698792 0.229492 27.162 0.229492 59.806C0.229492 92.45 26.7472 118.913 59.4585 118.913ZM29.495 43.8123C32.3172 43.8123 34.605 41.5292 34.605 38.7128C34.605 35.8965 32.3172 33.6134 29.495 33.6134C26.6729 33.6134 24.3851 35.8965 24.3851 38.7128C24.3851 41.5292 26.6729 43.8123 29.495 43.8123ZM68.9813 38.7128C68.9813 41.5292 66.6935 43.8123 63.8714 43.8123C61.0492 43.8123 58.7614 41.5292 58.7614 38.7128C58.7614 35.8965 61.0492 33.6134 63.8714 33.6134C66.6935 33.6134 68.9813 35.8965 68.9813 38.7128ZM46.683 55.1702C49.5051 55.1702 51.7929 52.8871 51.7929 50.0707C51.7929 47.2544 49.5051 44.9713 46.683 44.9713C43.8608 44.9713 41.573 47.2544 41.573 50.0707C41.573 52.8871 43.8608 55.1702 46.683 55.1702ZM46.9156 66.0961C43.1152 66.0961 39.9021 64.4286 37.528 62.5944C36.3543 61.6876 35.4366 60.7781 34.8178 60.101C34.51 59.7641 34.2804 59.4895 34.1344 59.3082C34.0615 59.2176 34.0097 59.1508 33.9798 59.1115L33.9522 59.0749L33.9553 59.0792C33.956 59.0801 33.9566 59.081 31.3535 60.965C28.7503 62.8489 28.751 62.8499 28.7517 62.8509L28.7533 62.8531L28.757 62.8581L28.7659 62.8703L28.7907 62.9039C28.8102 62.9302 28.8358 62.9644 28.8674 63.0059C28.9306 63.0888 29.0179 63.2012 29.1287 63.3388C29.3501 63.6138 29.6668 63.9911 30.0739 64.4366C30.885 65.3241 32.0723 66.5007 33.5988 67.6801C36.625 70.0181 41.1929 72.5228 46.9156 72.5228C52.6383 72.5228 57.2063 70.0181 60.2324 67.6801C61.7589 66.5007 62.9462 65.3241 63.7573 64.4366C64.1644 63.9911 64.4811 63.6138 64.7025 63.3388C64.8133 63.2012 64.9006 63.0888 64.9638 63.0059C64.9954 62.9644 65.021 62.9302 65.0406 62.9039L65.0653 62.8703L65.0742 62.8581L65.0795 62.8509C65.0802 62.8499 65.0809 62.8489 62.4778 60.965C59.8746 59.081 59.8764 59.0785 59.8771 59.0776L59.8797 59.0739L59.8514 59.1115C59.8215 59.1508 59.7698 59.2176 59.6968 59.3082C59.5508 59.4895 59.3212 59.7641 59.0134 60.101C58.3946 60.7781 57.4769 61.6876 56.3032 62.5944C53.9291 64.4286 50.716 66.0961 46.9156 66.0961Z" fill="#F0F6FC"/>
</svg>
