<svg width="16" height="16" viewBox="0 0 16 16" fill="none" xmlns="http://www.w3.org/2000/svg">
<path d="M8.57984 10.0467L6.8865 8.37334L6.9065 8.35334C8.0665 7.06001 8.89317 5.57334 9.37984 4.00001H11.3332V2.66668H6.6665V1.33334H5.33317V2.66668H0.666504V4.00001H8.11317C7.6665 5.28001 6.95984 6.50001 5.99984 7.56668C5.37984 6.88001 4.8665 6.12668 4.45984 5.33334H3.1265C3.61317 6.42001 4.27984 7.44668 5.11317 8.37334L1.71984 11.72L2.6665 12.6667L5.99984 9.33334L8.07317 11.4067L8.57984 10.0467ZM12.3332 6.66668H10.9998L7.99984 14.6667H9.33317L10.0798 12.6667H13.2465L13.9998 14.6667H15.3332L12.3332 6.66668ZM10.5865 11.3333L11.6665 8.44668L12.7465 11.3333H10.5865Z" fill="#F0F6FC"/>
</svg>
